<?xml version="1.0" encoding="UTF-8" standalone="no"?>
<!-- Created with Inkscape (http://www.inkscape.org/) -->

<svg
   xmlns:dc="http://purl.org/dc/elements/1.1/"
   xmlns:cc="http://creativecommons.org/ns#"
   xmlns:rdf="http://www.w3.org/1999/02/22-rdf-syntax-ns#"
   xmlns:svg="http://www.w3.org/2000/svg"
   xmlns="http://www.w3.org/2000/svg"
   xmlns:sodipodi="http://sodipodi.sourceforge.net/DTD/sodipodi-0.dtd"
   xmlns:inkscape="http://www.inkscape.org/namespaces/inkscape"
   width="156.39mm"
   height="167.59586mm"
   viewBox="0 0 554.13779 593.84357"
   id="svg2"
   version="1.1"
   inkscape:version="0.91 r13725"
   sodipodi:docname="bivac_tent2_dark.svg"
   inkscape:export-filename="/Users/jimena/Pictures/bivac_tent_dark.png"
   inkscape:export-xdpi="90"
   inkscape:export-ydpi="90">
  <defs
     id="defs4" />
  <sodipodi:namedview
     id="base"
     pagecolor="#ffffff"
     bordercolor="#666666"
     borderopacity="1.0"
     inkscape:pageopacity="0.0"
     inkscape:pageshadow="2"
     inkscape:zoom="0.7"
     inkscape:cx="226.60699"
     inkscape:cy="309.64674"
     inkscape:document-units="px"
     inkscape:current-layer="layer1"
     showgrid="false"
     fit-margin-top="10"
     fit-margin-left="10"
     fit-margin-right="10"
     fit-margin-bottom="10"
     inkscape:window-width="1440"
     inkscape:window-height="791"
     inkscape:window-x="0"
     inkscape:window-y="1"
     inkscape:window-maximized="1" />
  <metadata
     id="metadata7">
    <rdf:RDF>
      <cc:Work
         rdf:about="">
        <dc:format>image/svg+xml</dc:format>
        <dc:type
           rdf:resource="http://purl.org/dc/dcmitype/StillImage" />
        <dc:title></dc:title>
      </cc:Work>
    </rdf:RDF>
  </metadata>
  <g
     inkscape:label="Layer 1"
     inkscape:groupmode="layer"
     id="layer1"
     transform="translate(0.89714744,-344.82805)">
    <text
       xml:space="preserve"
       style="font-style:normal;font-weight:normal;font-size:40px;line-height:125%;font-family:sans-serif;letter-spacing:0px;word-spacing:0px;fill:#0088aa;fill-opacity:1;stroke:none;stroke-width:1px;stroke-linecap:butt;stroke-linejoin:miter;stroke-opacity:1;"
       x="33.065903"
       y="902.33856"
       id="text3336"
       sodipodi:linespacing="125%"><tspan
         sodipodi:role="line"
         id="tspan3338"
         x="33.065903"
         y="902.33856"
         style="font-style:normal;font-variant:normal;font-weight:normal;font-stretch:normal;font-size:90px;font-family:'20 db';-inkscape-font-specification:'20 db';fill:#0088aa;">BIV<tspan
   style="font-size:125px;fill:#0088aa;"
   id="tspan3340">A</tspan>C</tspan></text>
    <path
       style="fill:#0088aa;fill-opacity:1"
       d="M 222.07037,777.82875 C 172.40415,774.54604 134.90316,767.79161 82.313891,752.6568 l -13.52368,-3.89203 -2.470197,1.66715 c -2.972173,2.00588 -7.275355,2.70612 -8.939764,1.45469 -0.835915,-0.62848 -1.080456,-1.47019 -1.048221,-3.60739 l 0.04219,-2.78765 -4.002528,-0.927 c -6.238945,-1.44496 -12.040021,-2.10489 -15.023551,-1.70913 -2.805111,0.37209 -3.901014,-0.45986 -1.465477,-1.11256 2.640129,-0.70751 13.314429,0.15248 20.483564,1.65032 1.214062,0.25362 1.823873,0.16711 1.823873,-0.25878 0,-0.35193 1.452104,-2.46813 3.226867,-4.70267 1.774763,-2.23448 5.360744,-7.09199 7.96886,-10.79444 2.608065,-3.70244 7.509623,-10.64603 10.892309,-15.43022 6.146508,-8.69311 16.704536,-22.70885 30.649074,-40.68653 4.07,-5.24717 9.33705,-12.03796 11.70456,-15.09072 2.36752,-3.05272 5.81976,-7.50203 7.6717,-9.88737 6.10771,-7.86678 26.8055,-35.01194 34.23279,-44.89626 4.01252,-5.33996 11.09047,-14.65734 15.72876,-20.70531 7.19994,-9.38814 30.53486,-40.50526 37.38968,-49.85904 1.18754,-1.62044 3.13164,-4.27207 4.32025,-5.89253 12.74618,-17.37673 43.12804,-62.83376 51.85505,-77.585 7.15584,-12.09559 12.999,-21.1467 14.32512,-22.18982 1.15987,-0.91235 1.2718,-1.23506 0.67702,-1.95175 -1.15808,-1.39537 -0.1007,-1.69096 1.30955,-0.36611 0.71317,0.66998 1.74932,1.21814 2.30261,1.21814 0.63051,0 0.89374,0.29251 0.70521,0.7837 -0.1789,0.46625 2.82075,4.50117 7.40533,9.96119 4.23836,5.04762 11.46896,13.84942 16.068,19.55956 4.59906,5.71014 9.90355,12.27611 11.78776,14.59103 5.51443,6.77505 35.39831,44.97846 42.36181,54.15519 7.57841,9.9871 10.40121,13.65601 16.83918,21.88654 19.45596,24.87318 48.45924,62.87645 56.32031,73.79696 17.96335,24.95448 46.91197,68.72476 59.83863,90.47593 2.12828,3.5811 1.63024,3.48812 8.09713,1.51187 2.40612,-0.73534 3.61237,-0.85787 4.38323,-0.44533 1.85979,0.99534 0.91955,2.79852 -3.00216,5.75754 l -3.71713,2.80458 2.26512,3.68201 c 2.99574,4.86985 6.01088,11.42114 6.01088,13.06063 0,0.72318 -0.39311,1.87614 -0.87362,2.56215 -1.87309,2.67424 -4.3466,1.19143 -10.65222,-6.38571 -2.76615,-3.32393 -5.31711,-6.42836 -5.66877,-6.89865 -0.5555,-0.74288 -1.43949,-0.4771 -6.73433,2.02456 -10.87602,5.1387 -13.78884,6.40246 -24.61431,10.67925 -33.18701,13.11101 -85.60788,27.87937 -119.81482,33.75507 -38.0188,6.53045 -86.57986,8.89249 -127.37905,6.19589 z m 32.10023,-10.95113 c 3.55554,-0.36423 3.58805,-0.38323 3.35684,-1.95865 -0.18412,-1.25452 0.18066,-1.98192 1.72551,-3.44093 1.07739,-1.01755 6.98578,-8.54231 13.12967,-16.72172 16.087,-21.41673 16.04359,-21.35993 23.41346,-30.58505 7.40766,-9.27236 14.3841,-17.48527 21.53425,-25.35091 l 4.67968,-5.14794 -7.46536,-6.39828 c -15.92631,-13.64985 -28.32424,-23.09698 -38.6116,-29.42172 -13.14145,-8.07947 -17.2633,-10.45202 -23.42982,-13.48625 -5.67547,-2.79258 -7.48368,-4.0933 -5.69042,-4.0933 0.98716,0 27.37076,13.23676 34.20959,17.1631 10.96106,6.29305 25.18816,16.12484 39.52554,27.3145 l 5.61193,4.37987 3.0257,-3.2437 c 1.66413,-1.78401 5.57844,-5.90497 8.6985,-9.15764 13.11832,-13.67606 22.94195,-24.32106 28.47514,-30.85609 11.55281,-13.64458 20.12897,-24.07013 20.12897,-24.46974 0,-0.2524 -1.43764,-1.91174 -3.1948,-3.6874 -1.75712,-1.77567 -3.01289,-3.41031 -2.79061,-3.63259 0.22227,-0.22227 1.97562,1.13065 3.89625,3.00656 1.92068,1.87591 3.74469,3.31388 4.05334,3.19548 0.33497,-0.12844 0.61713,1.42494 0.69997,3.85338 0.23094,6.771 1.27031,23.3391 1.8571,29.60292 0.30358,3.24087 0.68125,7.28146 0.83928,8.9791 0.15798,1.69758 0.40181,4.22296 0.54175,5.61193 0.13999,1.38893 0.39939,4.29313 0.57655,6.45373 0.17711,2.1606 0.8114,8.72655 1.40953,14.59104 2.17587,21.3337 2.60605,26.00444 3.1013,33.6716 0.19933,3.08657 0.67729,9.4 1.06209,14.02985 0.38484,4.62984 0.61358,9.40151 0.50831,10.60372 -0.23072,2.63577 -1.63757,4.96284 -2.85545,4.7231 -1.36465,-0.26861 -2.88359,-2.73674 -3.21572,-5.22534 -0.54135,-4.05577 -1.92822,-23.40182 -2.29322,-31.98804 -0.19678,-4.62984 -0.44586,-9.04927 -0.55352,-9.82088 -0.10766,-0.77167 -0.35121,-5.19105 -0.54126,-9.82089 -0.19005,-4.62985 -0.45049,-9.55434 -0.57875,-10.94328 -0.12826,-1.38897 -0.40221,-8.83879 -0.60878,-16.5552 -0.20657,-7.71642 -0.44402,-14.78745 -0.52761,-15.71343 -0.0836,-0.92597 -0.18618,-7.997 -0.22789,-15.71341 l -0.0759,-14.02984 -1.41128,1.68358 c -0.7762,0.92597 -6.18628,8.03386 -12.02239,15.79531 -8.62051,11.46437 -28.26884,36.07881 -29.72462,37.23748 -0.82918,0.65996 -12.92002,15.28947 -12.91334,15.62475 0.007,0.35257 4.97833,4.11952 24.96575,18.9177 19.03578,14.0936 29.07284,23.13716 29.76323,26.81738 0.50858,2.71101 0.0404,3.73863 -1.70396,3.73863 -2.68582,0 -5.03861,-1.49853 -13.74978,-8.75737 -4.78366,-3.98609 -15.51606,-12.72122 -23.84977,-19.41132 -8.33374,-6.69015 -16.16239,-13.03949 -17.39701,-14.10962 -1.23462,-1.07018 -2.44123,-1.82505 -2.68129,-1.67752 -0.80677,0.49583 -13.58174,16.65658 -20.1073,25.43643 -7.11158,9.56831 -10.58671,14.35893 -20.15102,27.77909 -8.81545,12.36933 -12.77393,17.43358 -17.26711,22.09059 -1.01344,1.05038 -1.71749,2.03489 -1.56457,2.18781 0.7116,0.71158 36.21471,-2.87013 51.9504,-5.24106 30.22279,-4.55365 49.55699,-9.17084 90.47249,-21.60554 16.53002,-5.02368 21.87119,-6.59345 34.39308,-10.10809 5.55581,-1.5594 12.62686,-3.54629 15.71342,-4.4153 3.08656,-0.86904 10.78893,-2.88682 17.11641,-4.48401 6.32743,-1.59716 12.46558,-3.15482 13.64041,-3.46145 l 2.13595,-0.55747 -2.00297,-2.63559 c -6.24411,-8.21632 -10.30629,-14.28978 -33.3846,-49.91354 -17.80901,-27.49004 -26.69624,-40.64069 -44.09014,-65.24131 -10.148,-14.35255 -22.1127,-31.27253 -26.58819,-37.60001 -4.4755,-6.32744 -13.84751,-19.7119 -20.82674,-29.74324 -23.4904,-33.76304 -43.57013,-62.29437 -54.30644,-77.16411 -18.152,-25.14048 -20.17391,-27.70431 -21.88265,-27.74721 -1.62556,-0.0408 -3.26654,2.50934 -10.81302,16.80393 -9.26724,17.55409 -29.3151,52.57103 -38.87653,67.90443 -11.82718,18.96683 -27.63775,42.70916 -46.34032,69.58802 -6.33559,9.10533 -14.02857,20.21697 -17.09542,24.69252 -3.0669,4.47549 -7.26689,10.53638 -9.33329,13.46864 -2.06645,2.93222 -5.48834,7.85671 -7.60417,10.94327 -5.36255,7.82268 -24.28085,33.89273 -44.59309,61.4507 -9.44134,12.80922 -17.774208,24.17339 -18.517458,25.25371 -4.87677,7.08809 -15.38254,19.872 -21.542149,26.21348 -2.759766,2.84122 -3.690364,4.13475 -3.124728,4.34328 1.654,0.60977 29.656745,6.53185 41.142845,8.70097 27.79318,5.24869 47.66498,8.12546 66.00891,9.55596 4.16685,0.32491 8.8388,0.71294 10.38208,0.86231 1.54328,0.14937 8.10925,0.43198 14.59104,0.62808 6.48179,0.19615 11.87,0.42809 11.9738,0.5155 0.40334,0.33949 34.42613,0.26987 37.81592,-0.0774 z m -10.98153,-14.68544 c -0.5576,-1.09666 -0.88858,-4.95386 -1.14349,-13.32835 -0.4815,-15.81511 -0.91381,-26.45943 -1.18519,-29.18207 -0.1231,-1.23462 -0.38821,-6.28536 -0.58921,-11.22387 -0.20095,-4.9385 -0.4683,-10.11553 -0.5941,-11.50446 -0.55285,-6.10314 -0.92754,-59.48652 -0.41758,-59.48652 0.31337,0 0.82352,5.60987 1.21209,13.32834 0.6311,12.53774 2.58365,35.54848 5.11387,60.26676 0.61165,5.9755 1.25482,12.75854 1.42929,15.07348 0.17442,2.3149 0.4564,5.85042 0.6266,7.85671 0.54566,6.43276 0.39611,24.90371 -0.21401,26.4293 -0.64331,1.6086 -2.15975,3.31396 -2.9468,3.31396 -0.27872,0 -0.85984,-0.69449 -1.29147,-1.54328 z m 15.90818,-128.09244 c 0,-0.32867 1.91829,-0.56177 4.62984,-0.56253 8.61904,-0.004 23.74297,-1.38521 43.35221,-3.96334 4.62984,-0.60869 14.73133,-1.86598 22.44773,-2.79393 14.88304,-1.7898 40.42094,-5.18992 45.97873,-6.12163 2.3483,-0.39369 3.54607,-0.37699 4.06865,0.0568 2.21375,1.83726 -0.85759,4.91457 -6.27428,6.28644 -7.48003,1.89442 -23.23794,3.56712 -48.54323,5.15288 -4.70218,0.2947 -7.71812,0.49551 -16.55522,1.10241 -15.62663,1.07318 -23.9754,1.40038 -35.77608,1.40217 -8.51277,0 -13.32835,-0.20076 -13.32835,-0.55921 z m 30.30444,-212.35891 c 0,-3.52048 -0.39476,-10.94088 -0.87725,-16.4898 -0.48249,-5.54891 -0.79815,-11.19164 -0.70149,-12.53942 l 0.17576,-2.45049 1.12239,1.65766 c 1.05128,1.55263 1.13397,2.75265 1.30547,18.94029 0.12796,12.07759 0,17.28261 -0.42089,17.28261 -0.39589,0 -0.60399,-2.20532 -0.60399,-6.40085 z"
       id="path3425"
       inkscape:connector-curvature="0"
       sodipodi:nodetypes="cscssccssscssssssssssssscsscssssssscscccscscssscccssssscsssssscssssssscsscccscscccssssscscssccsssssccssssssscsccssssssssssscsscscssssccccscscssscscscscssscssscsssscssss" />
  </g>
</svg>
