<?xml version="1.0" encoding="UTF-8" standalone="no"?>
<!-- Created with Inkscape (http://www.inkscape.org/) -->

<svg
   xmlns:dc="http://purl.org/dc/elements/1.1/"
   xmlns:cc="http://creativecommons.org/ns#"
   xmlns:rdf="http://www.w3.org/1999/02/22-rdf-syntax-ns#"
   xmlns:svg="http://www.w3.org/2000/svg"
   xmlns="http://www.w3.org/2000/svg"
   xmlns:sodipodi="http://sodipodi.sourceforge.net/DTD/sodipodi-0.dtd"
   xmlns:inkscape="http://www.inkscape.org/namespaces/inkscape"
   width="126.79118mm"
   height="127.28776mm"
   viewBox="0 0 449.26008 451.01957"
   id="svg2"
   version="1.1"
   inkscape:version="0.91 r13725"
   sodipodi:docname="bivac_tent3_cont_orange_green_descr.svg"
   inkscape:export-filename="/Users/jimena/Pictures/Bivac/bivac_tent3_cont_orange_green3_front_descr_400.png"
   inkscape:export-xdpi="80.129997"
   inkscape:export-ydpi="80.129997">
  <defs
     id="defs4" />
  <sodipodi:namedview
     id="base"
     pagecolor="#ffffff"
     bordercolor="#666666"
     borderopacity="1.0"
     inkscape:pageopacity="0.0"
     inkscape:pageshadow="2"
     inkscape:zoom="1.4"
     inkscape:cx="238.92243"
     inkscape:cy="252.86442"
     inkscape:document-units="px"
     inkscape:current-layer="layer1"
     showgrid="false"
     fit-margin-top="3"
     fit-margin-left="3"
     fit-margin-right="3"
     fit-margin-bottom="3"
     inkscape:window-width="1440"
     inkscape:window-height="791"
     inkscape:window-x="0"
     inkscape:window-y="1"
     inkscape:window-maximized="1"
     showguides="false" />
  <metadata
     id="metadata7">
    <rdf:RDF>
      <cc:Work
         rdf:about="">
        <dc:format>image/svg+xml</dc:format>
        <dc:type
           rdf:resource="http://purl.org/dc/dcmitype/StillImage" />
        <dc:title></dc:title>
      </cc:Work>
    </rdf:RDF>
  </metadata>
  <g
     inkscape:label="Layer 1"
     inkscape:groupmode="layer"
     id="layer1"
     transform="translate(-44.275425,-473.53875)">
    <path
       sodipodi:type="star"
       style="fill:#d7f4d7;fill-opacity:1;stroke:none"
       id="path6619"
       sodipodi:sides="3"
       sodipodi:cx="213.12004"
       sodipodi:cy="699.21924"
       sodipodi:r1="165.33208"
       sodipodi:r2="82.666039"
       sodipodi:arg1="0.52359878"
       sodipodi:arg2="1.5707963"
       inkscape:flatsided="false"
       inkscape:rounded="0"
       inkscape:randomized="0"
       d="m 356.30182,781.88528 -143.18178,0 -143.181778,0 71.590888,-123.99906 71.59089,-123.99906 71.59089,123.99906 z"
       inkscape:transform-center-y="-45.373659"
       transform="matrix(0.83420666,0,0,1.0977574,13.999778,-72.435103)" />
    <g
       id="g4201">
      <rect
         style="fill:#8a3500;fill-opacity:1;stroke:none"
         id="rect6623"
         width="73.741135"
         height="73.741135"
         x="158.91537"
         y="710.42737" />
      <g
         transform="translate(0,-1.3552695)"
         id="g6595">
        <rect
           style="fill:#8a3500;fill-opacity:1;stroke:none"
           id="rect6547"
           width="73.741135"
           height="73.741135"
           x="141.83572"
           y="711.78265" />
        <path
           style="fill:#ff8133;fill-opacity:1"
           d="m 145.87621,715.82314 0,65.66016 65.66016,0 0,-65.66016 -65.66016,0 z m 6.30469,8.08008 5.05078,0 0,49.49805 -5.05078,0 0,-49.49805 z m 9.59961,0 5.05078,0 0,49.49805 -5.05078,0 0,-49.49805 z m 9.59961,0 5.05078,0 0,49.49805 -5.05078,0 0,-49.49805 z m 9.60156,0 5.05078,0 0,49.49805 -5.05078,0 0,-49.49805 z m 9.59961,0 5.05078,0 0,49.49805 -5.05078,0 0,-49.49805 z m 9.59961,0 5.05078,0 0,49.49805 -5.05078,0 0,-49.49805 z"
           id="rect5323"
           inkscape:connector-curvature="0" />
      </g>
    </g>
    <text
       xml:space="preserve"
       style="font-style:normal;font-weight:normal;font-size:37.7796402px;line-height:125%;font-family:sans-serif;letter-spacing:0px;word-spacing:0px;fill:#215419;fill-opacity:1;stroke:none;stroke-width:1px;stroke-linecap:butt;stroke-linejoin:miter;stroke-opacity:1"
       x="50.33028"
       y="825.91321"
       id="text3336"
       sodipodi:linespacing="125%"
       transform="scale(0.94452716,1.0587308)"><tspan
         sodipodi:role="line"
         id="tspan3338"
         x="50.33028"
         y="825.91321"
         style="font-style:normal;font-variant:normal;font-weight:normal;font-stretch:normal;font-size:97.49627686px;font-family:'20 db';-inkscape-font-specification:'20 db';fill:#215419;fill-opacity:1">BIVAC</tspan></text>
    <rect
       style="fill:#388f2b;fill-opacity:1;stroke:none"
       id="rect6585"
       width="154.35823"
       height="329.85513"
       x="-14.637434"
       y="526.33698"
       transform="matrix(1,0,0.39218749,0.9198853,0,0)" />
    <g
       id="g6575"
       transform="translate(-5.48637,0)"
       style="fill:#0b280b">
      <path
         sodipodi:nodetypes="csscc"
         inkscape:connector-curvature="0"
         id="path5482"
         d="m 197.93504,514.34101 c 0,0 -3.28561,70.35367 3.93962,101.72335 5.22915,22.7034 12.04842,46.78217 27.43366,64.29807 13.39665,15.2519 52.48178,30.95833 52.48178,30.95833 z"
         style="fill:#0b280b;fill-opacity:1;fill-rule:evenodd;stroke:none;stroke-width:1px;stroke-linecap:butt;stroke-linejoin:miter;stroke-opacity:1" />
      <path
         style="fill:#0b280b;fill-opacity:1;fill-rule:evenodd;stroke:none;stroke-width:1px;stroke-linecap:butt;stroke-linejoin:miter;stroke-opacity:1"
         d="m 198.55074,510.34101 c 0,0 2.48631,67.21145 -4.8336,99.60983 -5.29767,23.44789 -12.2063,48.31626 -27.79314,66.40654 -13.5722,15.75204 -53.16949,31.97352 -53.16949,31.97352 z"
         id="path5484"
         inkscape:connector-curvature="0"
         sodipodi:nodetypes="csscc" />
    </g>
    <path
       style="fill:#215419;fill-opacity:1;stroke:none"
       d="m 191.78594,484.16865 -65.58204,152 -65.58203,152 131.16407,0 131.16406,0 -65.58203,-152 -65.58203,-152 z m 0,34.38476 57.30078,132.8086 57.30078,132.80664 -114.60156,0 -114.60352,0 57.30273,-132.80664 57.30079,-132.8086 z"
       id="path6570"
       inkscape:connector-curvature="0" />
    <rect
       style="fill:#215419;fill-opacity:1"
       id="rect5261"
       width="428"
       height="4"
       x="54.905552"
       y="784.16852" />
    <text
       xml:space="preserve"
       style="font-style:normal;font-weight:normal;font-size:40.0840683px;line-height:125%;font-family:sans-serif;letter-spacing:0px;word-spacing:0px;fill:#215419;fill-opacity:1;stroke:none;stroke-width:1px;stroke-linecap:butt;stroke-linejoin:miter;stroke-opacity:1"
       x="52.690701"
       y="907.56128"
       id="text3346"
       sodipodi:linespacing="125%"><tspan
         sodipodi:role="line"
         id="tspan3348"
         x="52.690701"
         y="907.56128"
         style="font-style:normal;font-variant:normal;font-weight:normal;font-stretch:normal;font-size:27.68305969px;font-family:'Densia Sans';-inkscape-font-specification:'Densia Sans';fill:#215419;fill-opacity:1">Backup Interface for Volumes Attached to Containers</tspan></text>
    <rect
       y="878.16852"
       x="54.905552"
       height="4"
       width="428"
       id="rect4171"
       style="fill:#215419;fill-opacity:1" />
  </g>
</svg>
